<svg width="100" height="65" xmlns="http://www.w3.org/2000/svg">
 <defs>
  <style type="text/css">
   <![CDATA[
    .fil2 {fill:none}
    .fil1 {fill:#DE2425}
    .fil0 {fill:#282827}
   ]]>
  </style>
 </defs>
 <g>
  <title>background</title>
  <rect fill="#ffffff" id="canvas_background" height="67" width="102" y="-1" x="-1"/>
 </g>
 <g>
  <title>Layer 1</title>
  <g stroke="null" id="Слой_x0020_1">
   <metadata stroke="null" stroke-width="0" transform="translate(0,4) translate(-11,0) translate(-22,0) translate(43.3848876953125,0) translate(-6.3848876953125,0) translate(12.769775390625,0) translate(-32.769775390625,0) translate(4,0) translate(16,0) translate(0,-2.999999523162842) translate(6.3848876953125,0) translate(-27.3848876953125,0) translate(16.8848876953125,0) translate(16.5,0) translate(0,-0.0000019073486328125) translate(-0.3848876953125,0) translate(0,-21.499998092651367) translate(-46,0) translate(0,-13.500003814697266) translate(0,12.57646656036377) translate(46.769775390625,0) translate(0,-7.152557373046875e-7) translate(11.6151123046875,0) translate(11.6151123046875,0) translate(0,-22.152923583984375) translate(0,11.076458930969238) translate(0,-2.0000009536743164) translate(-36,0) translate(0,-13.076465606689453) translate(0,26.15293312072754) translate(0,-13.07646656036377) translate(6.3848876953125,0) translate(1,0) translate(0,9.999999046325684) translate(0,-3.076457977294922) translate(-5.3848876953125,0) translate(5.3848876953125,0) translate(0,3.076458215713501) translate(0,3.076465129852295) translate(5.3848876953125,0) translate(-30.00461769104004,0) translate(0,-0.9204986095428467) translate(46.769775390625,86.42353820800781) scale(0.6498553156852722,0.634379506111145) translate(-46.769775390625,-86.42353820800781) translate(25.80539894104004,2.4850518703460693) scale(1,1.1494224071502686) translate(-25.80539894104004,-2.4850518703460693) translate(25.80539894104004,7.647688865661621) scale(1.0343917608261108,1) translate(-25.80539894104004,-7.647688865661621) translate(159.17764282226562,7.647688865661621) scale(1.0110827684402466,1) translate(-159.17764282226562,-7.647688865661621) " id="CorelCorpID_0Corel-Layer"/>
   <g stroke="null" id="_2786615956112">
    <path stroke="null" stroke-width="0" id="svg_1" d="m34.442961,57.195046l-0.236717,-1.032002c0.694369,-0.169182 0.3314,-0.135341 0.899523,0.152265c0.410308,0.203016 0.741707,0.135341 0.915305,-0.253773c-0.284062,-0.439872 -0.789059,-0.169182 -1.309831,-0.304523c-1.088902,-0.253773 -0.883748,-1.573381 0.110464,-1.844071c0.410308,-0.118425 0.284062,0 0.615461,0.016917c0.284062,0.016917 0.236717,-0.135341 0.694369,-0.152258c0.126253,0.287607 0.157816,0.609047 0.09469,0.947411c-0.694369,0.118425 -0.394526,-0.050758 -0.836397,-0.186099c-0.284062,-0.084591 -0.867967,0 -0.647025,0.372198c0.173591,0.304523 1.294049,0.033833 1.751702,0.439865c0.50499,0.439872 0.347181,1.742563 -1.215148,1.641055c-0.299843,-0.016917 -0.568117,0.118425 -0.836397,0.203016zm5.602293,-4.75397l0.978424,-0.355281c0.410308,0.575213 0.520779,1.827147 0.789059,2.064003c0.299837,0.236849 0.394526,-0.169182 0.457652,0.659804c-1.467647,0.659804 -0.836404,-0.050758 -1.262493,0.304523c-0.946868,0.778229 -1.357176,0.981244 -1.956856,-0.761312c-0.09469,-0.27069 -0.142027,-0.575213 -0.3314,-0.693645c-0.236717,-0.169175 -0.426096,0.084591 -0.410314,-0.59213l0.978431,-0.338357c0.26828,0.625963 0.441871,1.421116 0.757496,1.996329c1.10467,0.135341 0.883735,-0.981251 0.615461,-1.505707c-0.220935,-0.456789 -0.173597,-0.101508 -0.552342,-0.338364l-0.06312,-0.439872l0,0.000007zm-3.424502,0.05075l0.647025,-0.186099c0.315618,1.116593 0.220935,0.828986 0.552335,0.89666c0.157816,0.033833 0.441878,-0.050758 0.331407,0.439865c-0.063126,0.287607 -0.142034,0.169182 -0.378744,0.372198c0.015775,0.186099 0.252492,1.099676 0.315618,1.235017c0.284062,0.57522 0.631243,-0.203016 0.694369,0.812069c-0.883742,0.456789 -1.230923,0.253773 -1.420295,-0.727478c-0.09469,-0.473705 -0.236717,-0.710554 -0.347188,-1.116593c-0.284062,-0.016917 -0.252499,0.033841 -0.473434,-0.084584c-0.157809,-0.812069 0.252499,-0.236856 0.252499,-0.761312c0,-0.152265 -0.173591,-0.625971 -0.173591,-0.879744zm10.226155,-1.877904c-0.347181,-1.928662 2.667007,-2.842232 3.093096,-0.575213c0.347188,1.844064 -2.682788,2.859149 -3.093096,0.575213zm-0.946868,-0.642887c0.189379,0.372198 0.347188,0.828986 0.520779,1.201184c0.615461,1.319608 0.26828,0.524456 0.804834,0.828986l0.09469,0.54138c-0.441871,0.152258 -0.899523,0.507539 -1.388739,0.524456c-0.457652,-0.981244 0.394533,-0.203016 -0.157809,-1.522624c-0.568117,-1.404199 -0.53656,-0.033833 -0.931086,-1.16735c0.410308,-0.152258 0.615461,-0.389114 1.057332,-0.406031zm-3.124659,-0.422948c0.189372,-0.118432 0.725933,-0.338364 0.978431,-0.355281c0.205154,0.32144 1.230923,3.079081 1.341394,3.552793c0.315625,0.016917 0.53656,-0.152265 0.599687,0.609047c-0.473441,0.186099 -0.647031,0.389114 -1.120465,0.236856c-0.284055,0.422948 -0.552335,0.744395 -1.294049,0.693638c-0.994206,-0.084591 -1.751702,-1.505707 -1.073114,-2.520792c0.378744,-0.558296 0.647025,-0.524456 1.467647,-0.625963c-0.031563,-0.236856 -0.173597,-0.795153 -0.347188,-0.930494c-0.347181,-0.287607 -0.489216,0.067667 -0.552335,-0.659804l-0.000007,0zm-13.918931,-12.079496c0.583898,0.101508 1.546548,-0.642887 2.682788,-1.082752c1.546548,-0.609054 2.288255,-0.930494 3.882148,-0.981251c1.372957,-0.033833 2.603887,1.251941 3.314031,2.317776c1.451865,2.165511 2.414508,5.413774 2.477634,8.019157c0.063126,2.30086 -0.615461,2.842232 -2.635443,3.518953c-3.329813,1.116593 -3.266686,0.998168 -6.344007,1.099676c-2.051538,0.050758 -5.870567,-0.710554 -7.543367,-1.911738c-1.120459,-0.812069 0.157809,-1.302691 0.883742,-1.471873c2.035763,-0.490622 4.024182,-0.541372 6.249318,-1.75948c0.378744,-0.219932 0.678588,-0.355274 1.041558,-0.558289c0.426082,-0.236856 2.035757,-0.981251 1.578104,-1.454957c-0.362963,-0.372198 -1.499203,0.473705 -1.846391,0.676721c-2.004193,1.2181 -6.959462,3.24827 -9.231942,1.336525c-1.357176,-1.167343 -1.451865,-3.434362 -1.057339,-5.109251c0.867967,-3.806559 3.266693,-7.088663 6.217761,-9.321848c1.073114,-0.828986 2.651225,-1.860988 4.134646,-1.894821c1.530766,-0.050758 2.730133,2.588459 2.87216,3.992658c0.126253,1.235017 -0.23671,0.947411 -1.025769,1.268858c-2.035763,0.828986 -2.730133,0.947411 -4.750115,2.030162c-0.378744,0.186099 -1.009988,0.659804 -0.899523,1.285775l0.000007,0zm22.709009,5.363024c0.015782,0.676721 -0.662806,0.913577 -1.420302,1.454957c-0.189372,0.135341 -2.035757,1.285767 -2.43029,0.778229c-0.078901,-0.101508 -0.110464,-0.203016 -0.142027,-0.304523c-0.520779,-1.742563 -0.710151,-2.571549 -1.388739,-4.567878l-1.309831,-3.705051c-0.110464,-0.338364 -0.220935,-1.065842 -0.615461,-1.048918c-0.931086,0.05075 0.031563,1.962495 0.157809,2.368527c0.315625,0.86282 0.568124,1.657965 0.852178,2.503875c0.173597,0.473698 1.499203,4.872394 1.514991,5.363024c0.015775,0.625963 -3.708564,2.368527 -4.560742,2.385443c-0.031563,-0.625971 -0.031563,-1.268851 -0.047345,-1.911738c-0.09469,-3.332861 -0.836397,-4.973909 -1.972637,-7.765391c-1.120459,-2.740724 -6.170417,-9.744803 -6.186198,-10.658373c-0.015775,-0.389122 0.978431,-0.930494 1.309838,-1.116593c0.583898,-0.338364 0.946861,-0.54138 1.609667,-0.812069c0.946868,-0.389114 1.215148,-0.389114 1.672801,0.203016c1.167803,1.573381 1.988419,2.774565 2.919505,4.635553c0.284062,0.609047 0.473434,1.116585 0.757489,1.725639c0.142034,0.27069 0.315625,0.642887 0.53656,0.744395c0.457652,0.236849 0.473434,-0.203016 0.457652,-0.625971c-0.015782,-0.456789 -1.40452,-3.366695 -1.657019,-3.823483c-0.299837,-0.507539 -1.846384,-3.214429 -1.830603,-3.62046c0.031563,-0.879736 2.667007,-1.590298 3.598093,-1.742563c0.962643,-0.152258 1.041551,0.930494 1.73592,2.283943c0.173591,0.338357 0.299837,0.693638 0.457652,1.015085c0.931086,1.962495 2.619662,5.819805 3.329813,7.73155c0.757496,2.064003 1.499203,4.077249 2.067327,6.24276c0.094683,0.389114 0.583898,2.047086 0.583898,2.267019zm-2.177791,-21.824292c0.915305,-0.016917 0.789052,-0.050758 1.152022,0.845903c0.157809,0.422948 0.284062,0.778229 0.457652,1.184267c1.13624,2.605376 2.414508,6.564207 3.377158,9.389522c0.173591,0.490622 2.130446,7.224011 2.146228,7.579285c0.015782,0.507546 -1.294049,1.302691 -1.720139,1.556464c-0.552342,0.32144 -1.546555,0.998161 -2.27248,0.964327l-1.388739,-4.838561c-1.783265,-5.363031 -2.572324,-6.834897 -4.686988,-11.84264c-0.189372,-0.439872 -1.183585,-2.639224 -1.199367,-2.892989c-0.063126,-0.964327 3.866373,-1.928662 4.134653,-1.945579zm13.698002,0.964327c0.173591,-0.287607 0.678588,-2.67305 0.773271,-3.265187l0.647025,-3.231346c0.110471,-0.490622 0.252499,-0.507539 0.63125,-0.710554l6.975244,-3.400535c0.299843,-0.152258 0.583905,-0.27069 0.836404,-0.422948l0.063126,5.481448c-0.678595,0.422955 -4.276688,2.537709 -4.623869,3.079088c-0.189372,0.32144 -0.710151,1.454949 -0.662806,1.81023c0.394526,-0.067674 3.187785,-1.75948 3.629656,-2.013246c0.631243,-0.355281 3.250905,-1.945579 3.598093,-2.047086l0.568117,1.505707c0.047345,0.135341 0.078908,0.372198 0.126246,0.507539c-0.441864,0.389122 -1.215141,0.778236 -1.751702,1.082759l-5.223542,3.062171c0.110464,0.270682 1.73592,1.133509 2.114665,1.319608c0.946868,0.473705 1.088895,0.710554 1.546548,0.372198l1.972644,-1.454957c0.489209,-0.338364 0.86796,-0.659804 1.357176,-0.998168c0.473427,-0.32144 0.678581,-0.067667 1.593886,0.304531l2.414515,0.998161c0.23671,0.101508 0.50499,0.27069 0.725926,0.338364c-0.520772,0.406031 -1.041551,0.727478 -1.609674,1.116593l-3.282468,2.250102c-1.672794,1.150426 -1.041551,0.964327 -3.156222,1.015078c-0.205154,0.016924 -0.094683,-0.05075 -0.410308,-0.067667l-3.47184,-0.067674c-0.710151,-0.05075 -1.909518,-0.169182 -2.572324,-0.067674c-0.047345,0.490629 0,0.879744 0,1.353449c0,0.355281 -0.094683,0.710554 -0.142027,1.116593c-0.126246,1.573374 -1.562329,4.584788 -2.761696,4.855478l-1.167797,-4.838561c-0.36297,-1.201184 -1.294056,-3.823483 -2.051545,-4.821644c-0.347188,-0.473713 -0.931086,-1.201184 -1.578111,-1.082759c-0.015782,0.439872 0.741707,2.250102 0.931086,2.706891c0.631243,1.607215 2.60388,6.953322 2.651225,8.695877c0.031563,1.116593 -3.519185,2.97758 -4.292462,2.994497c-0.110471,-0.203016 -0.331407,-0.964327 -0.394526,-1.251934c-0.110471,-0.473705 -0.205161,-0.86282 -0.315625,-1.268851c-1.341394,-5.176932 -3.108877,-10.184675 -5.097296,-15.107827c-0.126253,-0.321447 -0.347188,-0.778236 -0.410308,-1.099676c0.678588,-0.456789 3.534967,-1.167343 4.639644,-1.201184c1.83061,-0.05075 2.887942,0.016924 4.686988,0.778229c0.946868,0.406038 1.672801,1.082759 2.493416,1.674889zm-2.887949,-13.33143c0.063126,-0.389114 0.157816,-0.947411 0.252505,-1.353442c0.142027,-0.744395 0.883742,-2.182428 -0.552342,-1.556464l-3.377158,1.302691c-0.53656,0.219932 -0.504997,0.338364 -0.804834,0.778229c-0.236717,0.338364 -0.394533,0.642887 -0.615468,0.998168l-1.846391,2.94374c-0.3314,0.558296 -0.284055,0.456789 -0.710144,0.828986c-0.489216,-0.439865 -4.655425,-1.624131 -5.381358,-1.725639c-2.414508,-0.355281 -4.213554,0 -6.154635,0.727471c-0.93108,0.355281 -1.767483,0.642887 -2.682788,0.998168c-0.441871,0.169182 -0.836397,0.321447 -1.341394,0.507546c-1.972637,0.659804 -4.560736,1.708722 -6.533373,2.486951c-1.814828,0.693638 -3.456065,1.421116 -5.034176,2.317776c-0.804841,0.473705 -1.483422,0.86282 -2.288262,1.421116c-2.067327,1.404199 -4.118865,3.197513 -5.539167,5.363024c-2.87216,4.347939 -2.461853,8.915817 2.083108,10.878313c0.536554,0.219932 1.578111,0.59213 2.240917,0.59213c-0.504997,2.689974 -2.209361,6.327351 -1.025776,9.81247c0.552342,1.641055 2.209354,3.062171 3.629656,3.755809c0.284062,0.135341 0.520779,0.287607 0.820615,0.422948c1.546548,0.710562 4.686988,1.844071 6.280881,2.080927c-0.725933,1.624131 -1.893729,3.975741 -0.299837,5.616789c1.641231,1.674889 4.371363,1.860988 6.659625,1.302691c0.252499,-0.05075 0.299837,-0.05075 0.536554,-0.135341c1.657019,-0.524463 3.172004,-1.16735 4.765896,-1.911738c0.631243,-0.304531 1.152022,-0.57522 1.73592,-0.862827c2.398726,-1.133509 6.123072,-3.332854 8.332426,-4.990826c2.193573,-1.624131 2.051545,-1.2181 1.988419,-3.29902c-0.015782,-0.896653 -0.047345,-1.81023 -0.063126,-2.706891c1.073114,-0.812062 2.887942,0.186099 3.724346,0.169182c1.057332,-0.033833 1.672794,-0.558296 2.367163,-1.251934c0.189372,-0.186099 0.315625,-0.27069 0.552342,-0.54138c0.552335,-0.642887 1.972637,-1.776397 2.06732,-2.334693c-0.473427,-0.439865 -1.562329,-0.558296 -2.272474,-0.727471l-2.36717,-0.54138c0.126253,-0.338364 1.057332,-0.86282 1.372957,-1.065842c0.931086,-0.642887 3.582311,-2.216261 4.181991,-2.94374c1.120459,-1.370366 2.714351,-5.97207 3.598093,-5.988994c0.773277,-0.033833 3.677001,0.964335 4.544961,1.268858c0.615461,0.219932 0.583898,0.203016 1.041551,-0.152265c0.284062,-0.219932 0.53656,-0.422948 0.804841,-0.642887c2.446071,-1.996329 4.686988,-4.043415 7.259312,-5.97207c1.341387,-1.015085 0.157809,-1.2181 -0.773277,-1.691806l-3.014195,-1.387282c-0.489216,-0.219932 -1.19936,-0.439872 -1.436077,-0.795145c0.220935,-0.389114 1.388739,-1.116593 1.499203,-1.353449c0.157809,-0.338357 -1.073114,-3.586627 -1.641237,-4.009575c-0.489216,-0.372198 -1.19936,0.067667 -2.0042,0.37219l-0.142027,-5.278433c-0.047345,-1.827147 0.110471,-2.723807 -1.325612,-1.945571c-2.761696,1.488783 -6.154635,3.096005 -8.648044,4.500204c-1.041558,0.59213 -0.946868,0.253766 -1.467647,1.2181c-0.583898,1.082752 -0.441871,1.015078 -0.820615,1.793313c-0.757496,-0.406038 -2.603887,-1.370366 -3.187785,-1.894829l1.009988,-5.396857zm-15.260325,40.112715c-0.678588,0.236856 -0.331407,1.235017 0.315618,1.048918c0.568124,-0.169182 0.378751,-1.302691 -0.315618,-1.048918zm-0.157816,-35.984708c2.067327,-0.710554 4.308244,0.54138 4.986832,2.808398c0.694369,2.250102 -0.441871,4.669386 -2.524979,5.396857c-2.06732,0.710562 -4.308237,-0.524456 -4.986825,-2.791474c-0.694369,-2.267019 0.441871,-4.686303 2.524972,-5.413781zm-20.231375,19.591114l-4.008401,-8.57746l1.341394,-1.235017l0.96265,3.011414l2.351382,-4.601712l2.382945,-0.575213l-3.692776,4.923152l5.476041,1.302691l-0.836397,2.35161l-5.018388,-3.26518l-0.552342,0.558296l3.897936,3.755802l-2.304044,2.351617l0,0zm6.044164,-4.263355l-2.36717,-8.966567l2.840604,-1.268858c0.615461,-0.287607 1.13624,-0.32144 1.499203,-0.304523c0.378744,0.033833 0.710151,0.169182 1.025776,0.456789c0.299837,0.27069 0.50499,0.625971 0.631243,1.048918c0.173591,0.54138 0.142027,1.048918 -0.078908,1.53954c-0.205154,0.490629 -0.647025,0.89666 -1.294049,1.235024c0.284062,0.033833 0.520772,0.101508 0.678588,0.186099c0.362963,0.169182 0.725933,0.422948 1.088895,0.744395l1.593893,1.404199l-1.057332,1.488783c-0.946868,-1.251934 -1.278275,-2.182428 -2.477634,-3.062164c-0.994213,-0.710562 -0.994213,-0.27069 -2.035763,0.084591l2.572317,4.009575l-2.619662,1.404199zm-0.426089,-6.208926c4.544954,-1.573381 2.367163,-4.16184 0.50499,-2.639216l-1.230923,0.998168l0.725933,1.641048zm6.912124,2.825315l-2.067327,-8.374437l5.223542,-1.657965l0.36297,1.18426l-4.655425,1.184267l1.13624,2.6223l3.787465,-2.03017l0.583898,1.505707l-4.16621,1.116593l1.530766,2.774565l2.667007,-2.097844l1.530766,1.201184l-5.933693,2.571542z" class="fil0"/>
    <path stroke="null" stroke-width="0" id="svg_2" d="m43.058341,51.700597c-1.066005,0.547104 -0.301699,2.803892 1.005658,1.98324c0.945318,-0.569897 0.402261,-2.689915 -1.005658,-1.98324z" class="fil0"/>
    <polygon stroke="null" stroke-width="0" id="svg_3" points="53.74491092554081,47.4184455871582 54.53668611412604,45.7593994140625 52.698656405065776,46.444095611572266 50.945449282994105,45.25905227661133 51.171676275410846,47.155094146728516 49.44675620558428,48.18214797973633 51.53928067443303,48.629852294921875 51.878605735159454,50.63119888305664 52.981434360124695,48.86686325073242 55.18706461123247,48.787841796875 " class="fil1"/>
    <path stroke="null" stroke-width="0" id="svg_4" d="m48.121736,49.235871c-1.348483,0.504396 -0.674245,2.613688 0.674238,2.223932c1.123735,-0.343906 0.735536,-2.728321 -0.674238,-2.223932z" class="fil0"/>
    <line stroke="null" stroke-width="0" id="svg_5" y2="6.171865" x2="106.999999" y1="6.171865" x1="106.999999" class="fil2"/>
    <path stroke="null" stroke-width="0" id="svg_6" d="m44.874481,13.942037c1.531127,-0.527387 3.14615,0.321024 3.628562,1.926124c0.482412,1.6051 -0.377535,3.347773 -1.908661,3.898092c-1.510159,0.527394 -3.146156,-0.321017 -3.607588,-1.926117c-0.482412,-1.6051 0.377535,-3.347773 1.887687,-3.898099z" class="fil0"/>
   </g>
  </g>
 </g>
</svg>