<?xml version="1.0" encoding="UTF-8"?>
<!DOCTYPE svg PUBLIC "-//W3C//DTD SVG 1.1//EN" "http://www.w3.org/Graphics/SVG/1.1/DTD/svg11.dtd">
<!-- Creator: CorelDRAW X8 -->
<svg xmlns="http://www.w3.org/2000/svg" xml:space="preserve" width="102.093mm" height="61.2555mm" version="1.1" style="shape-rendering:geometricPrecision; text-rendering:geometricPrecision; image-rendering:optimizeQuality; fill-rule:evenodd; clip-rule:evenodd"
viewBox="0 0 1559 936"
 xmlns:xlink="http://www.w3.org/1999/xlink">
 <defs>
  <style type="text/css">
   <![CDATA[
    .str1 {stroke:#2B2A29;stroke-width:3.05468}
    .str0 {stroke:#2B2A29;stroke-width:1.16383}
    .fil0 {fill:none}
    .fil2 {fill:#282827}
    .fil3 {fill:#DE2425}
    .fil1 {fill:#FEFEFE}
    .fil4 {fill:#FEFEFE;fill-rule:nonzero}
   ]]>
  </style>
 </defs>
 <g id="Слой_x0020_1">
  <metadata id="CorelCorpID_0Corel-Layer"/>
  <rect class="fil0" width="1559" height="936"/>
  <g id="_1784749243488">
   <path class="fil1" d="M287 551c-1,0 -2,-1 -3,-1 -102,-41 -110,-141 -51,-223 26,-37 63,-68 101,-92 12,-8 26,-16 39,-23 28,-15 57,-27 87,-38 36,-13 72,-26 108,-38 7,-2 14,-4 20,-7 15,-5 30,-10 44,-15 40,-14 76,-19 119,-13 13,2 44,9 69,18l23 -33 0 0c3,-5 6,-10 10,-15 10,-14 14,-20 31,-26l0 0 55 -20c19,-7 41,-7 56,11 13,15 12,33 6,51 0,2 -1,5 -2,6 -1,7 -2,14 -4,20l-7 37c1,-2 3,-3 4,-4 7,-4 13,-6 20,-9 46,-25 94,-46 141,-69 18,-9 39,-13 57,0 22,15 20,40 21,63l1 36c6,1 11,3 17,7 14,10 24,30 30,45 7,16 16,37 13,55l26 12 0 0c1,0 2,0 2,1 19,8 36,14 42,37 6,23 -7,42 -25,54 -40,28 -78,60 -117,90 -5,4 -9,7 -14,10 -18,14 -31,15 -52,8 -11,-4 -23,-7 -34,-10 -4,-2 -9,-3 -14,-4 -4,8 -9,19 -12,24 -9,17 -19,37 -31,50 -6,7 -15,14 -25,21 2,1 4,3 6,4l17 15 -4 22c-5,25 -27,38 -43,55 -4,4 -7,6 -11,10 -19,18 -37,29 -64,29 -8,1 -15,-1 -22,-3 0,1 0,2 0,2 1,15 2,29 -5,43 -9,19 -28,29 -44,40 -41,29 -96,59 -142,79 -9,4 -19,9 -28,13 -27,12 -54,23 -82,31 -4,1 -8,2 -12,3 -48,11 -106,6 -143,-30 -13,-12 -21,-27 -24,-45 -2,-14 -1,-28 3,-41 -23,-7 -47,-15 -65,-23 -5,-2 -9,-5 -14,-7 -33,-15 -67,-44 -79,-79 -12,-33 -11,-66 -4,-100 3,-11 6,-22 9,-34l0 0z"/>
   <path class="fil1" d="M536 836c5,-1 9,-3 14,-3 25,2 28,-18 19,-25 -7,-6 -25,-2 -28,-6 -4,-6 6,-7 10,-6 8,2 3,5 14,3 1,-5 1,-10 -1,-15 -8,0 -7,3 -12,3 -5,-1 -3,-2 -10,-1 -16,4 -19,25 -2,29 9,2 17,-2 22,4 -3,6 -8,7 -15,4 -9,-4 -3,-5 -15,-2l4 15 0 0z"/>
   <path class="fil2" d="M536 836l-4 -15c12,-3 6,-2 15,2 7,3 12,2 15,-4 -5,-6 -13,-2 -22,-4 -17,-4 -14,-24 2,-29 7,-1 5,0 10,1 5,0 4,-3 12,-3 2,5 2,10 1,15 -11,2 -6,-1 -14,-3 -4,-1 -14,0 -10,6 3,4 21,0 28,6 9,7 6,27 -19,25 -5,0 -9,2 -14,3l0 0zm91 -72l16 -5c7,8 9,27 13,31 5,4 6,-3 7,10 -23,10 -13,-1 -20,5 -15,12 -22,15 -32,-12 -1,-4 -2,-9 -5,-11 -4,-2 -7,2 -7,-8l16 -6c4,10 7,22 12,31 18,2 15,-15 10,-23 -3,-7 -3,-2 -9,-5l-1 -7 0 0zm-56 1l11 -3c5,17 4,12 9,14 3,0 7,-1 5,6 -1,5 -2,3 -6,6 1,3 4,17 5,19 5,9 11,-3 12,12 -15,7 -20,4 -23,-11 -2,-7 -4,-11 -6,-17 -5,0 -4,1 -8,-1 -2,-12 4,-4 4,-12 0,-2 -2,-9 -3,-13l0 0zm167 -28c-6,-30 43,-44 50,-9 6,28 -43,43 -50,9zm-15 -10c3,5 5,12 8,18 10,20 4,8 13,12l2 9c-7,2 -15,7 -23,8 -7,-15 6,-4 -3,-24 -9,-21 -8,0 -15,-17 7,-2 10,-6 17,-6l1 0zm-51 -7c3,-1 11,-5 16,-5 3,5 19,47 21,54 5,0 9,-3 10,9 -8,3 -10,6 -18,3 -5,7 -9,12 -21,11 -16,-1 -29,-23 -18,-38 7,-9 11,-8 24,-10 0,-3 -3,-12 -5,-14 -6,-4 -8,1 -9,-10zm-227 -183c10,1 25,-10 44,-17 25,-9 37,-14 63,-14 22,-1 42,19 54,35 24,33 39,82 40,122 1,35 -10,43 -43,53 -54,17 -53,15 -103,16 -33,1 -95,-10 -122,-28 -19,-13 2,-20 14,-23 33,-7 65,-8 102,-27 6,-3 11,-5 17,-8 6,-4 33,-15 25,-22 -6,-6 -24,7 -30,10 -33,19 -113,50 -150,20 -22,-17 -24,-52 -17,-77 14,-58 53,-108 101,-142 17,-12 43,-28 67,-28 25,-1 44,39 47,61 2,18 -4,14 -17,19 -33,12 -44,14 -77,30 -6,3 -17,10 -15,20l0 0zm370 81c0,11 -11,14 -23,22 -4,2 -34,20 -40,12 -1,-1 -2,-3 -2,-4 -9,-27 -12,-39 -23,-70l-21 -56c-2,-5 -4,-16 -10,-16 -15,1 0,30 2,36 5,13 9,25 14,38 3,7 25,74 25,81 0,10 -60,36 -74,37 -1,-10 -1,-20 -1,-29 -2,-51 -14,-76 -32,-118 -18,-42 -100,-148 -101,-162 0,-6 16,-14 21,-17 10,-5 16,-8 27,-12 15,-6 19,-6 27,3 19,24 32,42 47,70 5,9 8,17 13,27 2,4 5,9 8,11 8,3 8,-3 8,-10 0,-7 -23,-51 -27,-58 -5,-7 -30,-48 -30,-55 1,-13 44,-24 59,-26 15,-3 16,14 28,35 3,5 5,10 7,15 16,30 43,88 54,117 13,32 25,62 34,95 2,6 9,31 10,34l0 0zm-36 -331c15,0 13,-1 19,13 2,6 4,12 7,18 19,40 40,100 55,143 3,7 35,109 35,114 0,8 -21,20 -28,24 -9,5 -25,15 -37,15l-22 -74c-29,-81 -42,-103 -76,-179 -3,-7 -20,-41 -20,-44 -1,-15 63,-30 67,-30zm223 15c3,-4 11,-41 13,-50l10 -49c2,-7 4,-8 10,-10l114 -52c5,-2 9,-4 13,-6l1 83c-11,6 -69,38 -75,46 -3,5 -11,22 -11,28 7,-1 52,-27 59,-31 11,-5 53,-29 59,-31l9 23c1,2 2,6 2,8 -7,6 -19,12 -28,16l-85 47c2,4 28,17 34,20 16,7 18,11 25,5l33 -22c7,-5 14,-10 22,-15 7,-5 11,-1 25,5l40 15c3,1 8,4 12,5 -9,6 -18,11 -27,17l-53 34c-27,17 -17,15 -51,16 -4,0 -2,-1 -7,-2l-57 -1c-11,0 -31,-2 -41,-1 -1,8 0,14 0,21 -1,5 -2,11 -3,17 -2,24 -25,69 -45,74l-19 -74c-5,-18 -21,-58 -33,-73 -6,-7 -15,-18 -26,-16 0,6 12,34 15,41 11,24 43,105 44,132 0,16 -58,45 -70,45 -2,-3 -6,-15 -7,-19 -1,-7 -3,-13 -5,-19 -21,-79 -50,-155 -83,-230 -2,-4 -5,-11 -6,-16 11,-7 57,-18 75,-18 30,-1 47,0 76,11 16,7 28,17 41,26l0 0zm-47 -202c1,-6 3,-15 4,-21 2,-11 14,-33 -9,-24l-55 20c-9,3 -8,5 -13,12 -4,5 -6,10 -10,15l-30 45c-5,8 -5,7 -11,12 -9,-6 -76,-24 -88,-26 -39,-5 -69,0 -100,11 -15,6 -29,10 -44,15 -7,3 -13,5 -22,8 -32,10 -74,26 -106,38 -29,10 -56,21 -82,35 -13,7 -24,13 -37,21 -34,22 -67,49 -90,82 -47,66 -40,135 34,165 9,3 26,9 36,9 -8,41 -36,96 -16,149 9,25 36,46 59,57 4,2 8,4 13,6 25,11 76,28 102,32 -12,24 -31,60 -5,85 27,26 71,28 108,20 5,-1 5,-1 9,-2 27,-8 52,-18 78,-29 10,-5 18,-9 28,-13 39,-18 100,-51 136,-76 35,-25 33,-18 32,-50 0,-14 -1,-28 -1,-41 17,-13 47,3 61,2 17,0 27,-8 38,-19 3,-2 5,-4 9,-8 9,-9 32,-27 34,-35 -8,-7 -26,-9 -37,-11l-39 -8c2,-6 17,-13 23,-17 15,-10 58,-33 67,-44 19,-21 45,-91 59,-91 13,-1 60,14 74,19 10,3 9,3 17,-2 5,-4 9,-7 13,-10 40,-30 76,-61 118,-91 22,-15 3,-18 -12,-25l-50 -21c-7,-4 -19,-7 -23,-12 4,-6 23,-17 24,-21 3,-5 -17,-54 -26,-61 -8,-5 -20,1 -33,6l-2 -80c-1,-28 2,-42 -22,-30 -45,23 -100,47 -140,69 -17,8 -16,3 -24,18 -10,16 -8,15 -14,27 -12,-6 -42,-21 -52,-29l17 -81 0 0z"/>
   <path class="fil2" d="M677 756c-14,6 -4,32 13,23 12,-7 5,-31 -13,-23z"/>
   <polygon class="fil3" points="831,696 838,680 822,686 806,674 808,693 792,703 811,708 814,727 824,710 844,709 "/>
   <path class="fil1" d="M759 720c-17,5 -8,29 9,25 14,-4 9,-31 -9,-25z"/>
   <path class="fil2" d="M759 720c-17,5 -8,29 9,25 14,-4 9,-31 -9,-25z"/>
   <path class="fil1 str0" d="M704 162c34,-11 70,8 81,43 12,34 -7,71 -41,82 -34,11 -70,-8 -81,-43 -11,-34 7,-71 41,-82z"/>
   <path class="fil2 str1" d="M714 192c19,-6 39,4 45,22 5,18 -5,37 -24,43 -18,6 -38,-3 -44,-21 -6,-18 5,-38 23,-44z"/>
   <path class="fil4" d="M375 460l-65 -131 22 -19 15 46 39 -70 38 -8 -60 74 89 20 -13 36 -82 -50 -9 9 64 57 -38 36 0 0zm98 -65l-38 -136 46 -20c10,-4 19,-4 25,-4 6,0 11,3 16,7 5,4 9,9 11,16 2,8 2,16 -2,23 -3,7 -10,14 -21,19 5,0 9,1 11,2 6,3 12,7 18,12l26 21 -17 23c-16,-19 -21,-33 -41,-47 -16,-10 -16,-4 -33,2l42 60 -43 22 0 0zm-6 -94c74,-24 38,-64 8,-40l-20 15 12 25zm112 42l-34 -126 85 -26 6 18 -75 18 18 40 62 -31 9 23 -68 17 25 42 44 -32 25 18 -97 39 0 0z"/>
  </g>
 </g>
</svg>
