<?xml version="1.0" encoding="UTF-8"?>
<!DOCTYPE svg PUBLIC "-//W3C//DTD SVG 1.1//EN" "http://www.w3.org/Graphics/SVG/1.1/DTD/svg11.dtd">
<!-- Creator: CorelDRAW X8 -->
<svg xmlns="http://www.w3.org/2000/svg" xml:space="preserve" width="99.3379mm" height="99.3379mm" version="1.1" style="shape-rendering:geometricPrecision; text-rendering:geometricPrecision; image-rendering:optimizeQuality; fill-rule:evenodd; clip-rule:evenodd"
viewBox="0 0 11930 11930"
 xmlns:xlink="http://www.w3.org/1999/xlink">
 <defs>
  <style type="text/css">
   <![CDATA[
    .fil0 {fill:none}
    .fil1 {fill:orange}
   ]]>
  </style>
 </defs>
 <g id="Слой_x0020_1">
  <metadata id="CorelCorpID_0Corel-Layer"/>
  <path class="fil0" d="M5965 0c3294,0 5965,2670 5965,5965 0,3294 -2671,5965 -5965,5965 -3295,0 -5965,-2671 -5965,-5965 0,-3295 2670,-5965 5965,-5965z"/>
  <g>
   <path class="fil1" d="M9803 8574c-83,-39 -160,-133 -217,-190 -107,-106 -216,-224 -325,-325 -222,-207 -428,-440 -649,-649 -219,-206 -434,-436 -650,-648 -215,-211 -440,-432 -644,-652 -95,47 -483,436 -600,525 -219,166 -346,382 -765,367 -315,-11 -417,-131 -588,-265 -33,-26 -117,-104 -146,-133 -47,-47 -112,-92 -157,-135 -51,-48 -91,-87 -145,-133 -53,-46 -253,-217 -289,-262 -120,180 -473,492 -642,663l-1311 1312c-108,108 -226,219 -331,330 -59,63 -133,155 -216,193 221,144 419,110 681,109l5147 1c278,0 1502,27 1680,-31 64,-21 119,-47 167,-77l0 0zm235 -4952c-6,25 -19,53 -38,80 -37,51 -707,635 -811,727 -540,475 -1071,979 -1620,1440 746,762 1523,1522 2278,2279 50,50 140,125 171,187 129,-266 80,-628 80,-942 -1,-1132 12,-2308 1,-3433 -1,-128 -17,-240 -61,-338zm-139 -193c-22,-20 -45,-39 -71,-58 -223,-163 -469,-123 -729,-124l-5147 -3c-286,-1 -572,2 -858,2 -188,0 -672,-21 -829,27 -59,18 -121,56 -179,105 43,9 91,32 138,75 132,118 263,240 396,358l2435 2175c135,121 270,243 405,364 136,123 269,275 461,294 255,25 349,-78 519,-234 934,-848 1904,-1678 2837,-2529 135,-122 269,-238 402,-363 76,-73 155,-97 220,-89zm-8002 178c-17,30 -30,59 -39,87 -55,175 -31,624 -30,827 1,1136 -11,2304 -1,3433 1,145 21,271 78,381 1,1 1,1 1,1 45,-76 132,-146 184,-198 302,-309 707,-680 981,-979 205,-222 441,-441 656,-657 216,-218 431,-439 654,-650l-2440 -2172c-20,-24 -35,-48 -44,-73l0 0z"/>
  </g>
 </g>
</svg>
