<?xml version="1.0" encoding="UTF-8"?>
<!DOCTYPE svg PUBLIC "-//W3C//DTD SVG 1.1//EN" "http://www.w3.org/Graphics/SVG/1.1/DTD/svg11.dtd">
<!-- Creator: CorelDRAW X8 -->
<svg xmlns="http://www.w3.org/2000/svg" xml:space="preserve" width="83.1514mm" height="83.0711mm" version="1.1" style="shape-rendering:geometricPrecision; text-rendering:geometricPrecision; image-rendering:optimizeQuality; fill-rule:evenodd; clip-rule:evenodd"
viewBox="0 0 26136 26111"
 xmlns:xlink="http://www.w3.org/1999/xlink">
 <defs>
  <style type="text/css">
   <![CDATA[
    .fil1 {fill:#F4C534}
    .fil0 {fill:#FED83B}
   ]]>
  </style>
 </defs>
 <g id="Слой_x0020_1">
  <metadata id="CorelCorpID_0Corel-Layer"/>
  <g id="_1695641723360">
   <path class="fil0" d="M2371 21215c801,353 1809,1338 4025,2023 3370,1042 6897,794 10020,-780 1712,-863 2313,-1367 3497,-2545 4184,-4161 5138,-10235 2441,-15601 -196,-391 -338,-629 -552,-986 -234,-393 -413,-568 -583,-955 -707,-697 -2943,-2060 -4296,-2371 134,325 353,512 588,862 2865,4276 2787,9477 -143,13744 -534,777 -729,904 -1293,1469 -2048,2056 -4604,3313 -7652,3508 -5093,327 -7534,-2289 -8423,-2660 308,1352 1670,3590 2371,4292z"/>
   <path class="fil1" d="M2371 21215c174,347 1386,1504 1767,1819 666,551 1312,973 2137,1446 4237,2431 9992,2090 13965,-661 817,-565 1299,-1003 1939,-1640 4101,-4084 5265,-10739 2301,-15904 -472,-822 -900,-1474 -1447,-2136 -314,-382 -1468,-1591 -1814,-1768 170,387 349,562 583,955 214,357 356,595 552,986 2697,5366 1743,11440 -2441,15601 -1184,1178 -1785,1682 -3497,2545 -3123,1574 -6650,1822 -10020,780 -2216,-685 -3224,-1670 -4025,-2023z"/>
   <path class="fil0" d="M5232 7978l-3014 438c146,153 254,333 398,482 2583,2670 1692,606 1289,4730 539,-177 2383,-1321 2696,-1349 260,-23 2259,1164 2767,1335l-483 -3039 2176 -2147 -3061 -472 -1321 -2724c3,7 -27,9 -36,46l-697 1278c-227,462 -474,1012 -714,1422z"/>
   <path class="fil0" d="M13720 5731l-1499 213c96,349 672,693 1032,1145l-237 1550c341,-130 1243,-659 1436,-658 288,1 961,541 1403,634 -345,-2533 -241,-1171 841,-2656 -1807,-360 -1222,233 -2218,-1603l-758 1375z"/>
  </g>
 </g>
</svg>
