<?xml version="1.0" encoding="UTF-8"?>
<!DOCTYPE svg PUBLIC "-//W3C//DTD SVG 1.1//EN" "http://www.w3.org/Graphics/SVG/1.1/DTD/svg11.dtd">
<!-- Creator: CorelDRAW X8 -->
<svg xmlns="http://www.w3.org/2000/svg" xml:space="preserve" width="5.3844mm" height="5.3844mm" version="1.1" style="shape-rendering:geometricPrecision; text-rendering:geometricPrecision; image-rendering:optimizeQuality; fill-rule:evenodd; clip-rule:evenodd"
viewBox="0 0 29 29"
 xmlns:xlink="http://www.w3.org/1999/xlink">
 <defs>
  <style type="text/css">
   <![CDATA[
    .fil1 {fill:none}
    .fil0 {fill:#4BAE47}
   ]]>
  </style>
 </defs>
 <g id="Слой_x0020_1">
  <metadata id="CorelCorpID_0Corel-Layer"/>
  <g id="_1784824199024">
   <path class="fil0" d="M17 20c-1,-1 -4,-5 -5,-6 -3,-5 0,-3 2,-4 0,-1 0,-3 -1,-4 0,0 -1,0 -2,0 -2,0 -3,2 -4,4 0,3 1,5 3,8 2,3 4,5 7,6 1,0 4,-1 5,-3 0,0 0,-1 0,-1 0,-2 -3,-3 -4,-3 0,1 0,2 -1,3z"/>
   <circle class="fil1" cx="15" cy="15" r="15"/>
  </g>
 </g>
</svg>
