<?xml version="1.0" encoding="UTF-8"?>
<!DOCTYPE svg PUBLIC "-//W3C//DTD SVG 1.1//EN" "http://www.w3.org/Graphics/SVG/1.1/DTD/svg11.dtd">
<!-- Creator: CorelDRAW X8 -->
<svg xmlns="http://www.w3.org/2000/svg" xml:space="preserve" width="89.8636mm" height="89.8649mm" version="1.1" style="shape-rendering:geometricPrecision; text-rendering:geometricPrecision; image-rendering:optimizeQuality; fill-rule:evenodd; clip-rule:evenodd"
viewBox="0 0 4482 4482"
 xmlns:xlink="http://www.w3.org/1999/xlink">
 <defs>
  <style type="text/css">
   <![CDATA[
    .fil0 {fill:#EFC319}
    .fil1 {fill:#F19B1F}
    .fil2 {fill:#F3D55A}
    .fil3 {fill:#F7E9AF}
   ]]>
  </style>
 </defs>
 <g id="Слой_x0020_1">
  <metadata id="CorelCorpID_0Corel-Layer"/>
  <path class="fil0" d="M1849 693c707,-141 1138,449 952,1134 -136,502 -579,983 -1118,1083 -704,131 -1143,-440 -956,-1131 138,-512 577,-977 1122,-1086zm175 -156c-875,115 -1622,904 -1488,1928 114,867 912,1614 1929,1481 866,-113 1616,-912 1480,-1929 -115,-867 -908,-1614 -1921,-1480z"/>
  <path class="fil1" d="M539 2382c-72,-985 662,-1775 1564,-1844 987,-74 1766,665 1840,1563 81,986 -670,1770 -1562,1842 -979,79 -1777,-669 -1842,-1561zm111 -1731c51,646 155,557 -485,726 43,126 247,378 220,504 -24,115 -298,251 -385,360 108,134 360,239 385,360 28,127 -178,378 -220,504 641,168 535,83 485,727 155,-13 481,-96 572,9 54,63 133,382 154,476 128,-42 378,-248 505,-221 121,26 227,278 360,386 110,-87 245,-361 360,-386 127,-27 378,178 504,221 153,-641 106,-535 726,-485 -43,-557 -194,-570 486,-726 -42,-128 -248,-378 -221,-505 26,-119 277,-226 386,-360l-106 -94c-94,-74 -262,-183 -280,-266 -27,-127 179,-377 221,-505 -683,-157 -530,-167 -486,-725 -570,45 -565,191 -726,-486 -126,43 -377,248 -504,221 -83,-18 -137,-117 -188,-182 -32,-40 -57,-72 -86,-108l-86 -96 -172 204c-51,65 -105,164 -188,182 -127,27 -377,-179 -505,-221 -154,684 -172,529 -726,486z"/>
  <path class="fil2" d="M1794 1014c-22,33 -226,110 -373,232 -560,464 -413,994 -501,1060 -116,87 -145,-47 -140,-142 26,-511 305,-924 687,-1164 48,-30 148,-88 207,-107 103,-34 173,45 120,121zm206 -70c-70,-251 288,-152 299,-142 119,112 -97,204 -299,142zm-151 -251c-545,109 -984,574 -1122,1086 -187,691 252,1262 956,1131 539,-100 982,-581 1118,-1083 186,-685 -245,-1275 -952,-1134z"/>
  <path class="fil3" d="M1794 1014c53,-76 -17,-155 -120,-121 -59,19 -159,77 -207,107 -382,240 -661,653 -687,1164 -5,95 24,229 140,142 88,-66 -59,-596 501,-1060 147,-122 351,-199 373,-232z"/>
  <path class="fil3" d="M2000 944c202,62 418,-30 299,-142 -11,-10 -369,-109 -299,142z"/>
 </g>
</svg>
